<?xml version="1.0" encoding="UTF-8" standalone="no"?><!DOCTYPE svg PUBLIC "-//W3C//DTD SVG 1.1//EN" "http://www.w3.org/Graphics/SVG/1.1/DTD/svg11.dtd"><!-- Generated by graphviz version 2.40.1 (20161225.0304)
 --><!-- Title: G Pages: 1 --><svg xmlns="http://www.w3.org/2000/svg" xmlns:xlink="http://www.w3.org/1999/xlink" width="343pt" height="1741pt" viewBox="0.00 0.00 352.43 1790.60">
<g id="graph0" class="graph" transform="scale(.9722 .9722) rotate(0) translate(4 1786.6)">
<title>G</title>
<polygon fill="#ffffff" stroke="transparent" points="-4,4 -4,-1786.6 348.4304,-1786.6 348.4304,4 -4,4"/>
<!-- 1599542764016 -->
<g id="node1" class="node">
<title>1599542764016</title>
<path fill="none" stroke="#000000" d="M49.3387,-1732.5C49.3387,-1732.5 295.0917,-1732.5 295.0917,-1732.5 301.0917,-1732.5 307.0917,-1738.5 307.0917,-1744.5 307.0917,-1744.5 307.0917,-1770.1 307.0917,-1770.1 307.0917,-1776.1 301.0917,-1782.1 295.0917,-1782.1 295.0917,-1782.1 49.3387,-1782.1 49.3387,-1782.1 43.3387,-1782.1 37.3387,-1776.1 37.3387,-1770.1 37.3387,-1770.1 37.3387,-1744.5 37.3387,-1744.5 37.3387,-1738.5 43.3387,-1732.5 49.3387,-1732.5"/>
<text text-anchor="middle" x="78.4074" y="-1765.5" font-family="Helvetica Neue" font-size="14.00" fill="#000000">input_1</text>
<polyline fill="none" stroke="#000000" points="37.3387,-1757.3 119.4761,-1757.3 "/>
<text text-anchor="middle" x="78.4074" y="-1740.7" font-family="Helvetica Neue" font-size="14.00" fill="#000000">InputLayer</text>
<polyline fill="none" stroke="#000000" points="119.4761,-1732.5 119.4761,-1782.1 "/>
<text text-anchor="middle" x="148.8772" y="-1765.5" font-family="Helvetica Neue" font-size="14.00" fill="#000000">input:</text>
<polyline fill="none" stroke="#000000" points="119.4761,-1757.3 178.2783,-1757.3 "/>
<text text-anchor="middle" x="148.8772" y="-1740.7" font-family="Helvetica Neue" font-size="14.00" fill="#000000">output:</text>
<polyline fill="none" stroke="#000000" points="178.2783,-1732.5 178.2783,-1782.1 "/>
<text text-anchor="middle" x="242.685" y="-1765.5" font-family="Helvetica Neue" font-size="14.00" fill="#000000">[(None, 32, 32, 3)]</text>
<polyline fill="none" stroke="#000000" points="178.2783,-1757.3 307.0917,-1757.3 "/>
<text text-anchor="middle" x="242.685" y="-1740.7" font-family="Helvetica Neue" font-size="14.00" fill="#000000">[(None, 32, 32, 3)]</text>
</g>
<!-- 1599542766320 -->
<g id="node2" class="node">
<title>1599542766320</title>
<path fill="none" stroke="#000000" d="M48.575,-1645.9C48.575,-1645.9 295.8554,-1645.9 295.8554,-1645.9 301.8554,-1645.9 307.8554,-1651.9 307.8554,-1657.9 307.8554,-1657.9 307.8554,-1683.5 307.8554,-1683.5 307.8554,-1689.5 301.8554,-1695.5 295.8554,-1695.5 295.8554,-1695.5 48.575,-1695.5 48.575,-1695.5 42.575,-1695.5 36.575,-1689.5 36.575,-1683.5 36.575,-1683.5 36.575,-1657.9 36.575,-1657.9 36.575,-1651.9 42.575,-1645.9 48.575,-1645.9"/>
<text text-anchor="middle" x="82.298" y="-1678.9" font-family="Helvetica Neue" font-size="14.00" fill="#000000">random_flip</text>
<polyline fill="none" stroke="#000000" points="36.575,-1670.7 128.021,-1670.7 "/>
<text text-anchor="middle" x="82.298" y="-1654.1" font-family="Helvetica Neue" font-size="14.00" fill="#000000">RandomFlip</text>
<polyline fill="none" stroke="#000000" points="128.021,-1645.9 128.021,-1695.5 "/>
<text text-anchor="middle" x="157.4221" y="-1678.9" font-family="Helvetica Neue" font-size="14.00" fill="#000000">input:</text>
<polyline fill="none" stroke="#000000" points="128.021,-1670.7 186.8232,-1670.7 "/>
<text text-anchor="middle" x="157.4221" y="-1654.1" font-family="Helvetica Neue" font-size="14.00" fill="#000000">output:</text>
<polyline fill="none" stroke="#000000" points="186.8232,-1645.9 186.8232,-1695.5 "/>
<text text-anchor="middle" x="247.3393" y="-1678.9" font-family="Helvetica Neue" font-size="14.00" fill="#000000">(None, 32, 32, 3)</text>
<polyline fill="none" stroke="#000000" points="186.8232,-1670.7 307.8554,-1670.7 "/>
<text text-anchor="middle" x="247.3393" y="-1654.1" font-family="Helvetica Neue" font-size="14.00" fill="#000000">(None, 32, 32, 3)</text>
</g>
<!-- 1599542764016&#45;&gt;1599542766320 -->
<g id="edge1" class="edge">
<title>1599542764016-&gt;1599542766320</title>
<path fill="none" stroke="#000000" d="M172.2152,-1732.2517C172.2152,-1723.9937 172.2152,-1714.6517 172.2152,-1705.7864"/>
<polygon fill="#000000" stroke="#000000" points="175.7153,-1705.692 172.2152,-1695.692 168.7153,-1705.692 175.7153,-1705.692"/>
</g>
<!-- 1599542767472 -->
<g id="node3" class="node">
<title>1599542767472</title>
<path fill="none" stroke="#000000" d="M33.7868,-1559.3C33.7868,-1559.3 310.6436,-1559.3 310.6436,-1559.3 316.6436,-1559.3 322.6436,-1565.3 322.6436,-1571.3 322.6436,-1571.3 322.6436,-1596.9 322.6436,-1596.9 322.6436,-1602.9 316.6436,-1608.9 310.6436,-1608.9 310.6436,-1608.9 33.7868,-1608.9 33.7868,-1608.9 27.7868,-1608.9 21.7868,-1602.9 21.7868,-1596.9 21.7868,-1596.9 21.7868,-1571.3 21.7868,-1571.3 21.7868,-1565.3 27.7868,-1559.3 33.7868,-1559.3"/>
<text text-anchor="middle" x="82.298" y="-1592.3" font-family="Helvetica Neue" font-size="14.00" fill="#000000">random_rotation</text>
<polyline fill="none" stroke="#000000" points="21.7868,-1584.1 142.8092,-1584.1 "/>
<text text-anchor="middle" x="82.298" y="-1567.5" font-family="Helvetica Neue" font-size="14.00" fill="#000000">RandomRotation</text>
<polyline fill="none" stroke="#000000" points="142.8092,-1559.3 142.8092,-1608.9 "/>
<text text-anchor="middle" x="172.2103" y="-1592.3" font-family="Helvetica Neue" font-size="14.00" fill="#000000">input:</text>
<polyline fill="none" stroke="#000000" points="142.8092,-1584.1 201.6114,-1584.1 "/>
<text text-anchor="middle" x="172.2103" y="-1567.5" font-family="Helvetica Neue" font-size="14.00" fill="#000000">output:</text>
<polyline fill="none" stroke="#000000" points="201.6114,-1559.3 201.6114,-1608.9 "/>
<text text-anchor="middle" x="262.1275" y="-1592.3" font-family="Helvetica Neue" font-size="14.00" fill="#000000">(None, 32, 32, 3)</text>
<polyline fill="none" stroke="#000000" points="201.6114,-1584.1 322.6436,-1584.1 "/>
<text text-anchor="middle" x="262.1275" y="-1567.5" font-family="Helvetica Neue" font-size="14.00" fill="#000000">(None, 32, 32, 3)</text>
</g>
<!-- 1599542766320&#45;&gt;1599542767472 -->
<g id="edge2" class="edge">
<title>1599542766320-&gt;1599542767472</title>
<path fill="none" stroke="#000000" d="M172.2152,-1645.6517C172.2152,-1637.3937 172.2152,-1628.0517 172.2152,-1619.1864"/>
<polygon fill="#000000" stroke="#000000" points="175.7153,-1619.092 172.2152,-1609.092 168.7153,-1619.092 175.7153,-1619.092"/>
</g>
<!-- 1599543554592 -->
<g id="node4" class="node">
<title>1599543554592</title>
<path fill="none" stroke="#000000" d="M55.5729,-1472.7C55.5729,-1472.7 288.8575,-1472.7 288.8575,-1472.7 294.8575,-1472.7 300.8575,-1478.7 300.8575,-1484.7 300.8575,-1484.7 300.8575,-1510.3 300.8575,-1510.3 300.8575,-1516.3 294.8575,-1522.3 288.8575,-1522.3 288.8575,-1522.3 55.5729,-1522.3 55.5729,-1522.3 49.5729,-1522.3 43.5729,-1516.3 43.5729,-1510.3 43.5729,-1510.3 43.5729,-1484.7 43.5729,-1484.7 43.5729,-1478.7 49.5729,-1472.7 55.5729,-1472.7"/>
<text text-anchor="middle" x="82.298" y="-1505.7" font-family="Helvetica Neue" font-size="14.00" fill="#000000">rescaling</text>
<polyline fill="none" stroke="#000000" points="43.5729,-1497.5 121.0231,-1497.5 "/>
<text text-anchor="middle" x="82.298" y="-1480.9" font-family="Helvetica Neue" font-size="14.00" fill="#000000">Rescaling</text>
<polyline fill="none" stroke="#000000" points="121.0231,-1472.7 121.0231,-1522.3 "/>
<text text-anchor="middle" x="150.4242" y="-1505.7" font-family="Helvetica Neue" font-size="14.00" fill="#000000">input:</text>
<polyline fill="none" stroke="#000000" points="121.0231,-1497.5 179.8253,-1497.5 "/>
<text text-anchor="middle" x="150.4242" y="-1480.9" font-family="Helvetica Neue" font-size="14.00" fill="#000000">output:</text>
<polyline fill="none" stroke="#000000" points="179.8253,-1472.7 179.8253,-1522.3 "/>
<text text-anchor="middle" x="240.3414" y="-1505.7" font-family="Helvetica Neue" font-size="14.00" fill="#000000">(None, 32, 32, 3)</text>
<polyline fill="none" stroke="#000000" points="179.8253,-1497.5 300.8575,-1497.5 "/>
<text text-anchor="middle" x="240.3414" y="-1480.9" font-family="Helvetica Neue" font-size="14.00" fill="#000000">(None, 32, 32, 3)</text>
</g>
<!-- 1599542767472&#45;&gt;1599543554592 -->
<g id="edge3" class="edge">
<title>1599542767472-&gt;1599543554592</title>
<path fill="none" stroke="#000000" d="M172.2152,-1559.0517C172.2152,-1550.7937 172.2152,-1541.4517 172.2152,-1532.5864"/>
<polygon fill="#000000" stroke="#000000" points="175.7153,-1532.492 172.2152,-1522.492 168.7153,-1532.492 175.7153,-1532.492"/>
</g>
<!-- 1599543719536 -->
<g id="node5" class="node">
<title>1599543719536</title>
<path fill="none" stroke="#000000" d="M37.46,-1386.1C37.46,-1386.1 306.9704,-1386.1 306.9704,-1386.1 312.9704,-1386.1 318.9704,-1392.1 318.9704,-1398.1 318.9704,-1398.1 318.9704,-1423.7 318.9704,-1423.7 318.9704,-1429.7 312.9704,-1435.7 306.9704,-1435.7 306.9704,-1435.7 37.46,-1435.7 37.46,-1435.7 31.46,-1435.7 25.46,-1429.7 25.46,-1423.7 25.46,-1423.7 25.46,-1398.1 25.46,-1398.1 25.46,-1392.1 31.46,-1386.1 37.46,-1386.1"/>
<text text-anchor="middle" x="78.4067" y="-1419.1" font-family="Helvetica Neue" font-size="14.00" fill="#000000">conv2d</text>
<polyline fill="none" stroke="#000000" points="25.46,-1410.9 131.3534,-1410.9 "/>
<text text-anchor="middle" x="58.7405" y="-1394.3" font-family="Helvetica Neue" font-size="14.00" fill="#000000">Conv2D</text>
<polyline fill="none" stroke="#000000" points="92.021,-1386.1 92.021,-1410.9 "/>
<text text-anchor="middle" x="111.6872" y="-1394.3" font-family="Helvetica Neue" font-size="14.00" fill="#000000">relu</text>
<polyline fill="none" stroke="#000000" points="131.3534,-1386.1 131.3534,-1435.7 "/>
<text text-anchor="middle" x="160.7545" y="-1419.1" font-family="Helvetica Neue" font-size="14.00" fill="#000000">input:</text>
<polyline fill="none" stroke="#000000" points="131.3534,-1410.9 190.1556,-1410.9 "/>
<text text-anchor="middle" x="160.7545" y="-1394.3" font-family="Helvetica Neue" font-size="14.00" fill="#000000">output:</text>
<polyline fill="none" stroke="#000000" points="190.1556,-1386.1 190.1556,-1435.7 "/>
<text text-anchor="middle" x="254.1717" y="-1419.1" font-family="Helvetica Neue" font-size="14.00" fill="#000000">(None, 32, 32, 3)</text>
<polyline fill="none" stroke="#000000" points="190.1556,-1410.9 318.9704,-1410.9 "/>
<text text-anchor="middle" x="254.563" y="-1394.3" font-family="Helvetica Neue" font-size="14.00" fill="#000000">(None, 32, 32, 32)</text>
</g>
<!-- 1599543554592&#45;&gt;1599543719536 -->
<g id="edge4" class="edge">
<title>1599543554592-&gt;1599543719536</title>
<path fill="none" stroke="#000000" d="M172.2152,-1472.4517C172.2152,-1464.1937 172.2152,-1454.8517 172.2152,-1445.9864"/>
<polygon fill="#000000" stroke="#000000" points="175.7153,-1445.892 172.2152,-1435.892 168.7153,-1445.892 175.7153,-1445.892"/>
</g>
<!-- 1599550362912 -->
<g id="node6" class="node">
<title>1599550362912</title>
<path fill="none" stroke="#000000" d="M19.7826,-1299.5C19.7826,-1299.5 324.6478,-1299.5 324.6478,-1299.5 330.6478,-1299.5 336.6478,-1305.5 336.6478,-1311.5 336.6478,-1311.5 336.6478,-1337.1 336.6478,-1337.1 336.6478,-1343.1 330.6478,-1349.1 324.6478,-1349.1 324.6478,-1349.1 19.7826,-1349.1 19.7826,-1349.1 13.7826,-1349.1 7.7826,-1343.1 7.7826,-1337.1 7.7826,-1337.1 7.7826,-1311.5 7.7826,-1311.5 7.7826,-1305.5 13.7826,-1299.5 19.7826,-1299.5"/>
<text text-anchor="middle" x="78.4067" y="-1332.5" font-family="Helvetica Neue" font-size="14.00" fill="#000000">batch_normalization</text>
<polyline fill="none" stroke="#000000" points="7.7826,-1324.3 149.0308,-1324.3 "/>
<text text-anchor="middle" x="78.4067" y="-1307.7" font-family="Helvetica Neue" font-size="14.00" fill="#000000">BatchNormalization</text>
<polyline fill="none" stroke="#000000" points="149.0308,-1299.5 149.0308,-1349.1 "/>
<text text-anchor="middle" x="178.4319" y="-1332.5" font-family="Helvetica Neue" font-size="14.00" fill="#000000">input:</text>
<polyline fill="none" stroke="#000000" points="149.0308,-1324.3 207.833,-1324.3 "/>
<text text-anchor="middle" x="178.4319" y="-1307.7" font-family="Helvetica Neue" font-size="14.00" fill="#000000">output:</text>
<polyline fill="none" stroke="#000000" points="207.833,-1299.5 207.833,-1349.1 "/>
<text text-anchor="middle" x="272.2404" y="-1332.5" font-family="Helvetica Neue" font-size="14.00" fill="#000000">(None, 32, 32, 32)</text>
<polyline fill="none" stroke="#000000" points="207.833,-1324.3 336.6478,-1324.3 "/>
<text text-anchor="middle" x="272.2404" y="-1307.7" font-family="Helvetica Neue" font-size="14.00" fill="#000000">(None, 32, 32, 32)</text>
</g>
<!-- 1599543719536&#45;&gt;1599550362912 -->
<g id="edge5" class="edge">
<title>1599543719536-&gt;1599550362912</title>
<path fill="none" stroke="#000000" d="M172.2152,-1385.8517C172.2152,-1377.5937 172.2152,-1368.2517 172.2152,-1359.3864"/>
<polygon fill="#000000" stroke="#000000" points="175.7153,-1359.292 172.2152,-1349.292 168.7153,-1359.292 175.7153,-1359.292"/>
</g>
<!-- 1599550583280 -->
<g id="node7" class="node">
<title>1599550583280</title>
<path fill="none" stroke="#000000" d="M34.9481,-1212.9C34.9481,-1212.9 309.4823,-1212.9 309.4823,-1212.9 315.4823,-1212.9 321.4823,-1218.9 321.4823,-1224.9 321.4823,-1224.9 321.4823,-1250.5 321.4823,-1250.5 321.4823,-1256.5 315.4823,-1262.5 309.4823,-1262.5 309.4823,-1262.5 34.9481,-1262.5 34.9481,-1262.5 28.9481,-1262.5 22.9481,-1256.5 22.9481,-1250.5 22.9481,-1250.5 22.9481,-1224.9 22.9481,-1224.9 22.9481,-1218.9 28.9481,-1212.9 34.9481,-1212.9"/>
<text text-anchor="middle" x="78.4067" y="-1245.9" font-family="Helvetica Neue" font-size="14.00" fill="#000000">max_pooling2d</text>
<polyline fill="none" stroke="#000000" points="22.9481,-1237.7 133.8653,-1237.7 "/>
<text text-anchor="middle" x="78.4067" y="-1221.1" font-family="Helvetica Neue" font-size="14.00" fill="#000000">MaxPooling2D</text>
<polyline fill="none" stroke="#000000" points="133.8653,-1212.9 133.8653,-1262.5 "/>
<text text-anchor="middle" x="163.2664" y="-1245.9" font-family="Helvetica Neue" font-size="14.00" fill="#000000">input:</text>
<polyline fill="none" stroke="#000000" points="133.8653,-1237.7 192.6675,-1237.7 "/>
<text text-anchor="middle" x="163.2664" y="-1221.1" font-family="Helvetica Neue" font-size="14.00" fill="#000000">output:</text>
<polyline fill="none" stroke="#000000" points="192.6675,-1212.9 192.6675,-1262.5 "/>
<text text-anchor="middle" x="257.0749" y="-1245.9" font-family="Helvetica Neue" font-size="14.00" fill="#000000">(None, 32, 32, 32)</text>
<polyline fill="none" stroke="#000000" points="192.6675,-1237.7 321.4823,-1237.7 "/>
<text text-anchor="middle" x="257.0749" y="-1221.1" font-family="Helvetica Neue" font-size="14.00" fill="#000000">(None, 16, 16, 32)</text>
</g>
<!-- 1599550362912&#45;&gt;1599550583280 -->
<g id="edge6" class="edge">
<title>1599550362912-&gt;1599550583280</title>
<path fill="none" stroke="#000000" d="M172.2152,-1299.2517C172.2152,-1290.9937 172.2152,-1281.6517 172.2152,-1272.7864"/>
<polygon fill="#000000" stroke="#000000" points="175.7153,-1272.692 172.2152,-1262.692 168.7153,-1272.692 175.7153,-1272.692"/>
</g>
<!-- 1599550706832 -->
<g id="node8" class="node">
<title>1599550706832</title>
<path fill="none" stroke="#000000" d="M37.46,-1126.3C37.46,-1126.3 306.9704,-1126.3 306.9704,-1126.3 312.9704,-1126.3 318.9704,-1132.3 318.9704,-1138.3 318.9704,-1138.3 318.9704,-1163.9 318.9704,-1163.9 318.9704,-1169.9 312.9704,-1175.9 306.9704,-1175.9 306.9704,-1175.9 37.46,-1175.9 37.46,-1175.9 31.46,-1175.9 25.46,-1169.9 25.46,-1163.9 25.46,-1163.9 25.46,-1138.3 25.46,-1138.3 25.46,-1132.3 31.46,-1126.3 37.46,-1126.3"/>
<text text-anchor="middle" x="78.4067" y="-1159.3" font-family="Helvetica Neue" font-size="14.00" fill="#000000">conv2d_1</text>
<polyline fill="none" stroke="#000000" points="25.46,-1151.1 131.3534,-1151.1 "/>
<text text-anchor="middle" x="58.7405" y="-1134.5" font-family="Helvetica Neue" font-size="14.00" fill="#000000">Conv2D</text>
<polyline fill="none" stroke="#000000" points="92.021,-1126.3 92.021,-1151.1 "/>
<text text-anchor="middle" x="111.6872" y="-1134.5" font-family="Helvetica Neue" font-size="14.00" fill="#000000">relu</text>
<polyline fill="none" stroke="#000000" points="131.3534,-1126.3 131.3534,-1175.9 "/>
<text text-anchor="middle" x="160.7545" y="-1159.3" font-family="Helvetica Neue" font-size="14.00" fill="#000000">input:</text>
<polyline fill="none" stroke="#000000" points="131.3534,-1151.1 190.1556,-1151.1 "/>
<text text-anchor="middle" x="160.7545" y="-1134.5" font-family="Helvetica Neue" font-size="14.00" fill="#000000">output:</text>
<polyline fill="none" stroke="#000000" points="190.1556,-1126.3 190.1556,-1175.9 "/>
<text text-anchor="middle" x="254.563" y="-1159.3" font-family="Helvetica Neue" font-size="14.00" fill="#000000">(None, 16, 16, 32)</text>
<polyline fill="none" stroke="#000000" points="190.1556,-1151.1 318.9704,-1151.1 "/>
<text text-anchor="middle" x="254.563" y="-1134.5" font-family="Helvetica Neue" font-size="14.00" fill="#000000">(None, 16, 16, 64)</text>
</g>
<!-- 1599550583280&#45;&gt;1599550706832 -->
<g id="edge7" class="edge">
<title>1599550583280-&gt;1599550706832</title>
<path fill="none" stroke="#000000" d="M172.2152,-1212.6517C172.2152,-1204.3937 172.2152,-1195.0517 172.2152,-1186.1864"/>
<polygon fill="#000000" stroke="#000000" points="175.7153,-1186.092 172.2152,-1176.092 168.7153,-1186.092 175.7153,-1186.092"/>
</g>
<!-- 1599550706688 -->
<g id="node9" class="node">
<title>1599550706688</title>
<path fill="none" stroke="#000000" d="M12,-1039.7C12,-1039.7 332.4304,-1039.7 332.4304,-1039.7 338.4304,-1039.7 344.4304,-1045.7 344.4304,-1051.7 344.4304,-1051.7 344.4304,-1077.3 344.4304,-1077.3 344.4304,-1083.3 338.4304,-1089.3 332.4304,-1089.3 332.4304,-1089.3 12,-1089.3 12,-1089.3 6,-1089.3 0,-1083.3 0,-1077.3 0,-1077.3 0,-1051.7 0,-1051.7 0,-1045.7 6,-1039.7 12,-1039.7"/>
<text text-anchor="middle" x="78.4067" y="-1072.7" font-family="Helvetica Neue" font-size="14.00" fill="#000000">batch_normalization_1</text>
<polyline fill="none" stroke="#000000" points="0,-1064.5 156.8134,-1064.5 "/>
<text text-anchor="middle" x="78.4067" y="-1047.9" font-family="Helvetica Neue" font-size="14.00" fill="#000000">BatchNormalization</text>
<polyline fill="none" stroke="#000000" points="156.8134,-1039.7 156.8134,-1089.3 "/>
<text text-anchor="middle" x="186.2145" y="-1072.7" font-family="Helvetica Neue" font-size="14.00" fill="#000000">input:</text>
<polyline fill="none" stroke="#000000" points="156.8134,-1064.5 215.6156,-1064.5 "/>
<text text-anchor="middle" x="186.2145" y="-1047.9" font-family="Helvetica Neue" font-size="14.00" fill="#000000">output:</text>
<polyline fill="none" stroke="#000000" points="215.6156,-1039.7 215.6156,-1089.3 "/>
<text text-anchor="middle" x="280.023" y="-1072.7" font-family="Helvetica Neue" font-size="14.00" fill="#000000">(None, 16, 16, 64)</text>
<polyline fill="none" stroke="#000000" points="215.6156,-1064.5 344.4304,-1064.5 "/>
<text text-anchor="middle" x="280.023" y="-1047.9" font-family="Helvetica Neue" font-size="14.00" fill="#000000">(None, 16, 16, 64)</text>
</g>
<!-- 1599550706832&#45;&gt;1599550706688 -->
<g id="edge8" class="edge">
<title>1599550706832-&gt;1599550706688</title>
<path fill="none" stroke="#000000" d="M172.2152,-1126.0517C172.2152,-1117.7937 172.2152,-1108.4517 172.2152,-1099.5864"/>
<polygon fill="#000000" stroke="#000000" points="175.7153,-1099.492 172.2152,-1089.492 168.7153,-1099.492 175.7153,-1099.492"/>
</g>
<!-- 1599550779792 -->
<g id="node10" class="node">
<title>1599550779792</title>
<path fill="none" stroke="#000000" d="M27.1655,-953.1C27.1655,-953.1 317.2649,-953.1 317.2649,-953.1 323.2649,-953.1 329.2649,-959.1 329.2649,-965.1 329.2649,-965.1 329.2649,-990.7 329.2649,-990.7 329.2649,-996.7 323.2649,-1002.7 317.2649,-1002.7 317.2649,-1002.7 27.1655,-1002.7 27.1655,-1002.7 21.1655,-1002.7 15.1655,-996.7 15.1655,-990.7 15.1655,-990.7 15.1655,-965.1 15.1655,-965.1 15.1655,-959.1 21.1655,-953.1 27.1655,-953.1"/>
<text text-anchor="middle" x="78.4067" y="-986.1" font-family="Helvetica Neue" font-size="14.00" fill="#000000">max_pooling2d_1</text>
<polyline fill="none" stroke="#000000" points="15.1655,-977.9 141.6479,-977.9 "/>
<text text-anchor="middle" x="78.4067" y="-961.3" font-family="Helvetica Neue" font-size="14.00" fill="#000000">MaxPooling2D</text>
<polyline fill="none" stroke="#000000" points="141.6479,-953.1 141.6479,-1002.7 "/>
<text text-anchor="middle" x="171.049" y="-986.1" font-family="Helvetica Neue" font-size="14.00" fill="#000000">input:</text>
<polyline fill="none" stroke="#000000" points="141.6479,-977.9 200.4501,-977.9 "/>
<text text-anchor="middle" x="171.049" y="-961.3" font-family="Helvetica Neue" font-size="14.00" fill="#000000">output:</text>
<polyline fill="none" stroke="#000000" points="200.4501,-953.1 200.4501,-1002.7 "/>
<text text-anchor="middle" x="264.8575" y="-986.1" font-family="Helvetica Neue" font-size="14.00" fill="#000000">(None, 16, 16, 64)</text>
<polyline fill="none" stroke="#000000" points="200.4501,-977.9 329.2649,-977.9 "/>
<text text-anchor="middle" x="264.5749" y="-961.3" font-family="Helvetica Neue" font-size="14.00" fill="#000000">(None, 8, 8, 64)</text>
</g>
<!-- 1599550706688&#45;&gt;1599550779792 -->
<g id="edge9" class="edge">
<title>1599550706688-&gt;1599550779792</title>
<path fill="none" stroke="#000000" d="M172.2152,-1039.4517C172.2152,-1031.1937 172.2152,-1021.8517 172.2152,-1012.9864"/>
<polygon fill="#000000" stroke="#000000" points="175.7153,-1012.892 172.2152,-1002.892 168.7153,-1012.892 175.7153,-1012.892"/>
</g>
<!-- 1599550783056 -->
<g id="node11" class="node">
<title>1599550783056</title>
<path fill="none" stroke="#000000" d="M41.3513,-866.5C41.3513,-866.5 303.0791,-866.5 303.0791,-866.5 309.0791,-866.5 315.0791,-872.5 315.0791,-878.5 315.0791,-878.5 315.0791,-904.1 315.0791,-904.1 315.0791,-910.1 309.0791,-916.1 303.0791,-916.1 303.0791,-916.1 41.3513,-916.1 41.3513,-916.1 35.3513,-916.1 29.3513,-910.1 29.3513,-904.1 29.3513,-904.1 29.3513,-878.5 29.3513,-878.5 29.3513,-872.5 35.3513,-866.5 41.3513,-866.5"/>
<text text-anchor="middle" x="82.298" y="-899.5" font-family="Helvetica Neue" font-size="14.00" fill="#000000">conv2d_2</text>
<polyline fill="none" stroke="#000000" points="29.3513,-891.3 135.2447,-891.3 "/>
<text text-anchor="middle" x="62.6318" y="-874.7" font-family="Helvetica Neue" font-size="14.00" fill="#000000">Conv2D</text>
<polyline fill="none" stroke="#000000" points="95.9123,-866.5 95.9123,-891.3 "/>
<text text-anchor="middle" x="115.5785" y="-874.7" font-family="Helvetica Neue" font-size="14.00" fill="#000000">relu</text>
<polyline fill="none" stroke="#000000" points="135.2447,-866.5 135.2447,-916.1 "/>
<text text-anchor="middle" x="164.6458" y="-899.5" font-family="Helvetica Neue" font-size="14.00" fill="#000000">input:</text>
<polyline fill="none" stroke="#000000" points="135.2447,-891.3 194.0469,-891.3 "/>
<text text-anchor="middle" x="164.6458" y="-874.7" font-family="Helvetica Neue" font-size="14.00" fill="#000000">output:</text>
<polyline fill="none" stroke="#000000" points="194.0469,-866.5 194.0469,-916.1 "/>
<text text-anchor="middle" x="254.1717" y="-899.5" font-family="Helvetica Neue" font-size="14.00" fill="#000000">(None, 8, 8, 64)</text>
<polyline fill="none" stroke="#000000" points="194.0469,-891.3 315.0791,-891.3 "/>
<text text-anchor="middle" x="254.563" y="-874.7" font-family="Helvetica Neue" font-size="14.00" fill="#000000">(None, 8, 8, 128)</text>
</g>
<!-- 1599550779792&#45;&gt;1599550783056 -->
<g id="edge10" class="edge">
<title>1599550779792-&gt;1599550783056</title>
<path fill="none" stroke="#000000" d="M172.2152,-952.8517C172.2152,-944.5937 172.2152,-935.2517 172.2152,-926.3864"/>
<polygon fill="#000000" stroke="#000000" points="175.7153,-926.292 172.2152,-916.292 168.7153,-926.292 175.7153,-926.292"/>
</g>
<!-- 1599550796464 -->
<g id="node12" class="node">
<title>1599550796464</title>
<path fill="none" stroke="#000000" d="M15.8913,-779.9C15.8913,-779.9 328.5391,-779.9 328.5391,-779.9 334.5391,-779.9 340.5391,-785.9 340.5391,-791.9 340.5391,-791.9 340.5391,-817.5 340.5391,-817.5 340.5391,-823.5 334.5391,-829.5 328.5391,-829.5 328.5391,-829.5 15.8913,-829.5 15.8913,-829.5 9.8913,-829.5 3.8913,-823.5 3.8913,-817.5 3.8913,-817.5 3.8913,-791.9 3.8913,-791.9 3.8913,-785.9 9.8913,-779.9 15.8913,-779.9"/>
<text text-anchor="middle" x="82.298" y="-812.9" font-family="Helvetica Neue" font-size="14.00" fill="#000000">batch_normalization_2</text>
<polyline fill="none" stroke="#000000" points="3.8913,-804.7 160.7047,-804.7 "/>
<text text-anchor="middle" x="82.298" y="-788.1" font-family="Helvetica Neue" font-size="14.00" fill="#000000">BatchNormalization</text>
<polyline fill="none" stroke="#000000" points="160.7047,-779.9 160.7047,-829.5 "/>
<text text-anchor="middle" x="190.1058" y="-812.9" font-family="Helvetica Neue" font-size="14.00" fill="#000000">input:</text>
<polyline fill="none" stroke="#000000" points="160.7047,-804.7 219.5069,-804.7 "/>
<text text-anchor="middle" x="190.1058" y="-788.1" font-family="Helvetica Neue" font-size="14.00" fill="#000000">output:</text>
<polyline fill="none" stroke="#000000" points="219.5069,-779.9 219.5069,-829.5 "/>
<text text-anchor="middle" x="280.023" y="-812.9" font-family="Helvetica Neue" font-size="14.00" fill="#000000">(None, 8, 8, 128)</text>
<polyline fill="none" stroke="#000000" points="219.5069,-804.7 340.5391,-804.7 "/>
<text text-anchor="middle" x="280.023" y="-788.1" font-family="Helvetica Neue" font-size="14.00" fill="#000000">(None, 8, 8, 128)</text>
</g>
<!-- 1599550783056&#45;&gt;1599550796464 -->
<g id="edge11" class="edge">
<title>1599550783056-&gt;1599550796464</title>
<path fill="none" stroke="#000000" d="M172.2152,-866.2517C172.2152,-857.9937 172.2152,-848.6517 172.2152,-839.7864"/>
<polygon fill="#000000" stroke="#000000" points="175.7153,-839.692 172.2152,-829.692 168.7153,-839.692 175.7153,-839.692"/>
</g>
<!-- 1599550796224 -->
<g id="node13" class="node">
<title>1599550796224</title>
<path fill="none" stroke="#000000" d="M31.0568,-693.3C31.0568,-693.3 313.3736,-693.3 313.3736,-693.3 319.3736,-693.3 325.3736,-699.3 325.3736,-705.3 325.3736,-705.3 325.3736,-730.9 325.3736,-730.9 325.3736,-736.9 319.3736,-742.9 313.3736,-742.9 313.3736,-742.9 31.0568,-742.9 31.0568,-742.9 25.0568,-742.9 19.0568,-736.9 19.0568,-730.9 19.0568,-730.9 19.0568,-705.3 19.0568,-705.3 19.0568,-699.3 25.0568,-693.3 31.0568,-693.3"/>
<text text-anchor="middle" x="82.298" y="-726.3" font-family="Helvetica Neue" font-size="14.00" fill="#000000">max_pooling2d_2</text>
<polyline fill="none" stroke="#000000" points="19.0568,-718.1 145.5392,-718.1 "/>
<text text-anchor="middle" x="82.298" y="-701.5" font-family="Helvetica Neue" font-size="14.00" fill="#000000">MaxPooling2D</text>
<polyline fill="none" stroke="#000000" points="145.5392,-693.3 145.5392,-742.9 "/>
<text text-anchor="middle" x="174.9403" y="-726.3" font-family="Helvetica Neue" font-size="14.00" fill="#000000">input:</text>
<polyline fill="none" stroke="#000000" points="145.5392,-718.1 204.3414,-718.1 "/>
<text text-anchor="middle" x="174.9403" y="-701.5" font-family="Helvetica Neue" font-size="14.00" fill="#000000">output:</text>
<polyline fill="none" stroke="#000000" points="204.3414,-693.3 204.3414,-742.9 "/>
<text text-anchor="middle" x="264.8575" y="-726.3" font-family="Helvetica Neue" font-size="14.00" fill="#000000">(None, 8, 8, 128)</text>
<polyline fill="none" stroke="#000000" points="204.3414,-718.1 325.3736,-718.1 "/>
<text text-anchor="middle" x="264.8575" y="-701.5" font-family="Helvetica Neue" font-size="14.00" fill="#000000">(None, 4, 4, 128)</text>
</g>
<!-- 1599550796464&#45;&gt;1599550796224 -->
<g id="edge12" class="edge">
<title>1599550796464-&gt;1599550796224</title>
<path fill="none" stroke="#000000" d="M172.2152,-779.6517C172.2152,-771.3937 172.2152,-762.0517 172.2152,-753.1864"/>
<polygon fill="#000000" stroke="#000000" points="175.7153,-753.092 172.2152,-743.092 168.7153,-753.092 175.7153,-753.092"/>
</g>
<!-- 1599550584144 -->
<g id="node14" class="node">
<title>1599550584144</title>
<path fill="none" stroke="#000000" d="M64.9039,-606.7C64.9039,-606.7 279.5265,-606.7 279.5265,-606.7 285.5265,-606.7 291.5265,-612.7 291.5265,-618.7 291.5265,-618.7 291.5265,-644.3 291.5265,-644.3 291.5265,-650.3 285.5265,-656.3 279.5265,-656.3 279.5265,-656.3 64.9039,-656.3 64.9039,-656.3 58.9039,-656.3 52.9039,-650.3 52.9039,-644.3 52.9039,-644.3 52.9039,-618.7 52.9039,-618.7 52.9039,-612.7 58.9039,-606.7 64.9039,-606.7"/>
<text text-anchor="middle" x="82.298" y="-639.7" font-family="Helvetica Neue" font-size="14.00" fill="#000000">flatten</text>
<polyline fill="none" stroke="#000000" points="52.9039,-631.5 111.6921,-631.5 "/>
<text text-anchor="middle" x="82.298" y="-614.9" font-family="Helvetica Neue" font-size="14.00" fill="#000000">Flatten</text>
<polyline fill="none" stroke="#000000" points="111.6921,-606.7 111.6921,-656.3 "/>
<text text-anchor="middle" x="141.0932" y="-639.7" font-family="Helvetica Neue" font-size="14.00" fill="#000000">input:</text>
<polyline fill="none" stroke="#000000" points="111.6921,-631.5 170.4943,-631.5 "/>
<text text-anchor="middle" x="141.0932" y="-614.9" font-family="Helvetica Neue" font-size="14.00" fill="#000000">output:</text>
<polyline fill="none" stroke="#000000" points="170.4943,-606.7 170.4943,-656.3 "/>
<text text-anchor="middle" x="231.0104" y="-639.7" font-family="Helvetica Neue" font-size="14.00" fill="#000000">(None, 4, 4, 128)</text>
<polyline fill="none" stroke="#000000" points="170.4943,-631.5 291.5265,-631.5 "/>
<text text-anchor="middle" x="230.8379" y="-614.9" font-family="Helvetica Neue" font-size="14.00" fill="#000000">(None, 2048)</text>
</g>
<!-- 1599550796224&#45;&gt;1599550584144 -->
<g id="edge13" class="edge">
<title>1599550796224-&gt;1599550584144</title>
<path fill="none" stroke="#000000" d="M172.2152,-693.0517C172.2152,-684.7937 172.2152,-675.4517 172.2152,-666.5864"/>
<polygon fill="#000000" stroke="#000000" points="175.7153,-666.492 172.2152,-656.492 168.7153,-666.492 175.7153,-666.492"/>
</g>
<!-- 1599550363056 -->
<g id="node15" class="node">
<title>1599550363056</title>
<path fill="none" stroke="#000000" d="M58.0771,-520.1C58.0771,-520.1 286.3533,-520.1 286.3533,-520.1 292.3533,-520.1 298.3533,-526.1 298.3533,-532.1 298.3533,-532.1 298.3533,-557.7 298.3533,-557.7 298.3533,-563.7 292.3533,-569.7 286.3533,-569.7 286.3533,-569.7 58.0771,-569.7 58.0771,-569.7 52.0771,-569.7 46.0771,-563.7 46.0771,-557.7 46.0771,-557.7 46.0771,-532.1 46.0771,-532.1 46.0771,-526.1 52.0771,-520.1 58.0771,-520.1"/>
<text text-anchor="middle" x="93.9705" y="-553.1" font-family="Helvetica Neue" font-size="14.00" fill="#000000">dense</text>
<polyline fill="none" stroke="#000000" points="46.0771,-544.9 141.8639,-544.9 "/>
<text text-anchor="middle" x="74.3043" y="-528.3" font-family="Helvetica Neue" font-size="14.00" fill="#000000">Dense</text>
<polyline fill="none" stroke="#000000" points="102.5315,-520.1 102.5315,-544.9 "/>
<text text-anchor="middle" x="122.1977" y="-528.3" font-family="Helvetica Neue" font-size="14.00" fill="#000000">relu</text>
<polyline fill="none" stroke="#000000" points="141.8639,-520.1 141.8639,-569.7 "/>
<text text-anchor="middle" x="171.265" y="-553.1" font-family="Helvetica Neue" font-size="14.00" fill="#000000">input:</text>
<polyline fill="none" stroke="#000000" points="141.8639,-544.9 200.6661,-544.9 "/>
<text text-anchor="middle" x="171.265" y="-528.3" font-family="Helvetica Neue" font-size="14.00" fill="#000000">output:</text>
<polyline fill="none" stroke="#000000" points="200.6661,-520.1 200.6661,-569.7 "/>
<text text-anchor="middle" x="249.5097" y="-553.1" font-family="Helvetica Neue" font-size="14.00" fill="#000000">(None, 2048)</text>
<polyline fill="none" stroke="#000000" points="200.6661,-544.9 298.3533,-544.9 "/>
<text text-anchor="middle" x="249.1184" y="-528.3" font-family="Helvetica Neue" font-size="14.00" fill="#000000">(None, 256)</text>
</g>
<!-- 1599550584144&#45;&gt;1599550363056 -->
<g id="edge14" class="edge">
<title>1599550584144-&gt;1599550363056</title>
<path fill="none" stroke="#000000" d="M172.2152,-606.4517C172.2152,-598.1937 172.2152,-588.8517 172.2152,-579.9864"/>
<polygon fill="#000000" stroke="#000000" points="175.7153,-579.892 172.2152,-569.892 168.7153,-579.892 175.7153,-579.892"/>
</g>
<!-- 1599550844448 -->
<g id="node16" class="node">
<title>1599550844448</title>
<path fill="none" stroke="#000000" d="M31.4551,-433.5C31.4551,-433.5 312.9753,-433.5 312.9753,-433.5 318.9753,-433.5 324.9753,-439.5 324.9753,-445.5 324.9753,-445.5 324.9753,-471.1 324.9753,-471.1 324.9753,-477.1 318.9753,-483.1 312.9753,-483.1 312.9753,-483.1 31.4551,-483.1 31.4551,-483.1 25.4551,-483.1 19.4551,-477.1 19.4551,-471.1 19.4551,-471.1 19.4551,-445.5 19.4551,-445.5 19.4551,-439.5 25.4551,-433.5 31.4551,-433.5"/>
<text text-anchor="middle" x="97.8618" y="-466.5" font-family="Helvetica Neue" font-size="14.00" fill="#000000">batch_normalization_3</text>
<polyline fill="none" stroke="#000000" points="19.4551,-458.3 176.2685,-458.3 "/>
<text text-anchor="middle" x="97.8618" y="-441.7" font-family="Helvetica Neue" font-size="14.00" fill="#000000">BatchNormalization</text>
<polyline fill="none" stroke="#000000" points="176.2685,-433.5 176.2685,-483.1 "/>
<text text-anchor="middle" x="205.6696" y="-466.5" font-family="Helvetica Neue" font-size="14.00" fill="#000000">input:</text>
<polyline fill="none" stroke="#000000" points="176.2685,-458.3 235.0707,-458.3 "/>
<text text-anchor="middle" x="205.6696" y="-441.7" font-family="Helvetica Neue" font-size="14.00" fill="#000000">output:</text>
<polyline fill="none" stroke="#000000" points="235.0707,-433.5 235.0707,-483.1 "/>
<text text-anchor="middle" x="280.023" y="-466.5" font-family="Helvetica Neue" font-size="14.00" fill="#000000">(None, 256)</text>
<polyline fill="none" stroke="#000000" points="235.0707,-458.3 324.9753,-458.3 "/>
<text text-anchor="middle" x="280.023" y="-441.7" font-family="Helvetica Neue" font-size="14.00" fill="#000000">(None, 256)</text>
</g>
<!-- 1599550363056&#45;&gt;1599550844448 -->
<g id="edge15" class="edge">
<title>1599550363056-&gt;1599550844448</title>
<path fill="none" stroke="#000000" d="M172.2152,-519.8517C172.2152,-511.5937 172.2152,-502.2517 172.2152,-493.3864"/>
<polygon fill="#000000" stroke="#000000" points="175.7153,-493.292 172.2152,-483.292 168.7153,-493.292 175.7153,-493.292"/>
</g>
<!-- 1599542976080 -->
<g id="node17" class="node">
<title>1599542976080</title>
<path fill="none" stroke="#000000" d="M76.9677,-346.9C76.9677,-346.9 267.4627,-346.9 267.4627,-346.9 273.4627,-346.9 279.4627,-352.9 279.4627,-358.9 279.4627,-358.9 279.4627,-384.5 279.4627,-384.5 279.4627,-390.5 273.4627,-396.5 267.4627,-396.5 267.4627,-396.5 76.9677,-396.5 76.9677,-396.5 70.9677,-396.5 64.9677,-390.5 64.9677,-384.5 64.9677,-384.5 64.9677,-358.9 64.9677,-358.9 64.9677,-352.9 70.9677,-346.9 76.9677,-346.9"/>
<text text-anchor="middle" x="97.8618" y="-379.9" font-family="Helvetica Neue" font-size="14.00" fill="#000000">dropout</text>
<polyline fill="none" stroke="#000000" points="64.9677,-371.7 130.7559,-371.7 "/>
<text text-anchor="middle" x="97.8618" y="-355.1" font-family="Helvetica Neue" font-size="14.00" fill="#000000">Dropout</text>
<polyline fill="none" stroke="#000000" points="130.7559,-346.9 130.7559,-396.5 "/>
<text text-anchor="middle" x="160.157" y="-379.9" font-family="Helvetica Neue" font-size="14.00" fill="#000000">input:</text>
<polyline fill="none" stroke="#000000" points="130.7559,-371.7 189.5581,-371.7 "/>
<text text-anchor="middle" x="160.157" y="-355.1" font-family="Helvetica Neue" font-size="14.00" fill="#000000">output:</text>
<polyline fill="none" stroke="#000000" points="189.5581,-346.9 189.5581,-396.5 "/>
<text text-anchor="middle" x="234.5104" y="-379.9" font-family="Helvetica Neue" font-size="14.00" fill="#000000">(None, 256)</text>
<polyline fill="none" stroke="#000000" points="189.5581,-371.7 279.4627,-371.7 "/>
<text text-anchor="middle" x="234.5104" y="-355.1" font-family="Helvetica Neue" font-size="14.00" fill="#000000">(None, 256)</text>
</g>
<!-- 1599550844448&#45;&gt;1599542976080 -->
<g id="edge16" class="edge">
<title>1599550844448-&gt;1599542976080</title>
<path fill="none" stroke="#000000" d="M172.2152,-433.2517C172.2152,-424.9937 172.2152,-415.6517 172.2152,-406.7864"/>
<polygon fill="#000000" stroke="#000000" points="175.7153,-406.692 172.2152,-396.692 168.7153,-406.692 175.7153,-406.692"/>
</g>
<!-- 1599550731360 -->
<g id="node18" class="node">
<title>1599550731360</title>
<path fill="none" stroke="#000000" d="M61.9684,-260.3C61.9684,-260.3 282.462,-260.3 282.462,-260.3 288.462,-260.3 294.462,-266.3 294.462,-272.3 294.462,-272.3 294.462,-297.9 294.462,-297.9 294.462,-303.9 288.462,-309.9 282.462,-309.9 282.462,-309.9 61.9684,-309.9 61.9684,-309.9 55.9684,-309.9 49.9684,-303.9 49.9684,-297.9 49.9684,-297.9 49.9684,-272.3 49.9684,-272.3 49.9684,-266.3 55.9684,-260.3 61.9684,-260.3"/>
<text text-anchor="middle" x="97.8618" y="-293.3" font-family="Helvetica Neue" font-size="14.00" fill="#000000">dense_1</text>
<polyline fill="none" stroke="#000000" points="49.9684,-285.1 145.7552,-285.1 "/>
<text text-anchor="middle" x="78.1956" y="-268.5" font-family="Helvetica Neue" font-size="14.00" fill="#000000">Dense</text>
<polyline fill="none" stroke="#000000" points="106.4228,-260.3 106.4228,-285.1 "/>
<text text-anchor="middle" x="126.089" y="-268.5" font-family="Helvetica Neue" font-size="14.00" fill="#000000">relu</text>
<polyline fill="none" stroke="#000000" points="145.7552,-260.3 145.7552,-309.9 "/>
<text text-anchor="middle" x="175.1563" y="-293.3" font-family="Helvetica Neue" font-size="14.00" fill="#000000">input:</text>
<polyline fill="none" stroke="#000000" points="145.7552,-285.1 204.5574,-285.1 "/>
<text text-anchor="middle" x="175.1563" y="-268.5" font-family="Helvetica Neue" font-size="14.00" fill="#000000">output:</text>
<polyline fill="none" stroke="#000000" points="204.5574,-260.3 204.5574,-309.9 "/>
<text text-anchor="middle" x="249.5097" y="-293.3" font-family="Helvetica Neue" font-size="14.00" fill="#000000">(None, 256)</text>
<polyline fill="none" stroke="#000000" points="204.5574,-285.1 294.462,-285.1 "/>
<text text-anchor="middle" x="249.5097" y="-268.5" font-family="Helvetica Neue" font-size="14.00" fill="#000000">(None, 256)</text>
</g>
<!-- 1599542976080&#45;&gt;1599550731360 -->
<g id="edge17" class="edge">
<title>1599542976080-&gt;1599550731360</title>
<path fill="none" stroke="#000000" d="M172.2152,-346.6517C172.2152,-338.3937 172.2152,-329.0517 172.2152,-320.1864"/>
<polygon fill="#000000" stroke="#000000" points="175.7153,-320.092 172.2152,-310.092 168.7153,-320.092 175.7153,-320.092"/>
</g>
<!-- 1599550261184 -->
<g id="node19" class="node">
<title>1599550261184</title>
<path fill="none" stroke="#000000" d="M31.4551,-173.7C31.4551,-173.7 312.9753,-173.7 312.9753,-173.7 318.9753,-173.7 324.9753,-179.7 324.9753,-185.7 324.9753,-185.7 324.9753,-211.3 324.9753,-211.3 324.9753,-217.3 318.9753,-223.3 312.9753,-223.3 312.9753,-223.3 31.4551,-223.3 31.4551,-223.3 25.4551,-223.3 19.4551,-217.3 19.4551,-211.3 19.4551,-211.3 19.4551,-185.7 19.4551,-185.7 19.4551,-179.7 25.4551,-173.7 31.4551,-173.7"/>
<text text-anchor="middle" x="97.8618" y="-206.7" font-family="Helvetica Neue" font-size="14.00" fill="#000000">batch_normalization_4</text>
<polyline fill="none" stroke="#000000" points="19.4551,-198.5 176.2685,-198.5 "/>
<text text-anchor="middle" x="97.8618" y="-181.9" font-family="Helvetica Neue" font-size="14.00" fill="#000000">BatchNormalization</text>
<polyline fill="none" stroke="#000000" points="176.2685,-173.7 176.2685,-223.3 "/>
<text text-anchor="middle" x="205.6696" y="-206.7" font-family="Helvetica Neue" font-size="14.00" fill="#000000">input:</text>
<polyline fill="none" stroke="#000000" points="176.2685,-198.5 235.0707,-198.5 "/>
<text text-anchor="middle" x="205.6696" y="-181.9" font-family="Helvetica Neue" font-size="14.00" fill="#000000">output:</text>
<polyline fill="none" stroke="#000000" points="235.0707,-173.7 235.0707,-223.3 "/>
<text text-anchor="middle" x="280.023" y="-206.7" font-family="Helvetica Neue" font-size="14.00" fill="#000000">(None, 256)</text>
<polyline fill="none" stroke="#000000" points="235.0707,-198.5 324.9753,-198.5 "/>
<text text-anchor="middle" x="280.023" y="-181.9" font-family="Helvetica Neue" font-size="14.00" fill="#000000">(None, 256)</text>
</g>
<!-- 1599550731360&#45;&gt;1599550261184 -->
<g id="edge18" class="edge">
<title>1599550731360-&gt;1599550261184</title>
<path fill="none" stroke="#000000" d="M172.2152,-260.0517C172.2152,-251.7937 172.2152,-242.4517 172.2152,-233.5864"/>
<polygon fill="#000000" stroke="#000000" points="175.7153,-233.492 172.2152,-223.492 168.7153,-233.492 175.7153,-233.492"/>
</g>
<!-- 1599550294432 -->
<g id="node20" class="node">
<title>1599550294432</title>
<path fill="none" stroke="#000000" d="M70.3471,-87.1C70.3471,-87.1 274.0833,-87.1 274.0833,-87.1 280.0833,-87.1 286.0833,-93.1 286.0833,-99.1 286.0833,-99.1 286.0833,-124.7 286.0833,-124.7 286.0833,-130.7 280.0833,-136.7 274.0833,-136.7 274.0833,-136.7 70.3471,-136.7 70.3471,-136.7 64.3471,-136.7 58.3471,-130.7 58.3471,-124.7 58.3471,-124.7 58.3471,-99.1 58.3471,-99.1 58.3471,-93.1 64.3471,-87.1 70.3471,-87.1"/>
<text text-anchor="middle" x="97.8618" y="-120.1" font-family="Helvetica Neue" font-size="14.00" fill="#000000">dropout_1</text>
<polyline fill="none" stroke="#000000" points="58.3471,-111.9 137.3765,-111.9 "/>
<text text-anchor="middle" x="97.8618" y="-95.3" font-family="Helvetica Neue" font-size="14.00" fill="#000000">Dropout</text>
<polyline fill="none" stroke="#000000" points="137.3765,-87.1 137.3765,-136.7 "/>
<text text-anchor="middle" x="166.7776" y="-120.1" font-family="Helvetica Neue" font-size="14.00" fill="#000000">input:</text>
<polyline fill="none" stroke="#000000" points="137.3765,-111.9 196.1787,-111.9 "/>
<text text-anchor="middle" x="166.7776" y="-95.3" font-family="Helvetica Neue" font-size="14.00" fill="#000000">output:</text>
<polyline fill="none" stroke="#000000" points="196.1787,-87.1 196.1787,-136.7 "/>
<text text-anchor="middle" x="241.131" y="-120.1" font-family="Helvetica Neue" font-size="14.00" fill="#000000">(None, 256)</text>
<polyline fill="none" stroke="#000000" points="196.1787,-111.9 286.0833,-111.9 "/>
<text text-anchor="middle" x="241.131" y="-95.3" font-family="Helvetica Neue" font-size="14.00" fill="#000000">(None, 256)</text>
</g>
<!-- 1599550261184&#45;&gt;1599550294432 -->
<g id="edge19" class="edge">
<title>1599550261184-&gt;1599550294432</title>
<path fill="none" stroke="#000000" d="M172.2152,-173.4517C172.2152,-165.1937 172.2152,-155.8517 172.2152,-146.9864"/>
<polygon fill="#000000" stroke="#000000" points="175.7153,-146.892 172.2152,-136.892 168.7153,-146.892 175.7153,-146.892"/>
</g>
<!-- 1599550261232 -->
<g id="node21" class="node">
<title>1599550261232</title>
<path fill="none" stroke="#000000" d="M49.1311,-.5C49.1311,-.5 295.2993,-.5 295.2993,-.5 301.2993,-.5 307.2993,-6.5 307.2993,-12.5 307.2993,-12.5 307.2993,-38.1 307.2993,-38.1 307.2993,-44.1 301.2993,-50.1 295.2993,-50.1 295.2993,-50.1 49.1311,-50.1 49.1311,-50.1 43.1311,-50.1 37.1311,-44.1 37.1311,-38.1 37.1311,-38.1 37.1311,-12.5 37.1311,-12.5 37.1311,-6.5 43.1311,-.5 49.1311,-.5"/>
<text text-anchor="middle" x="97.8618" y="-33.5" font-family="Helvetica Neue" font-size="14.00" fill="#000000">dense_2</text>
<polyline fill="none" stroke="#000000" points="37.1311,-25.3 158.5925,-25.3 "/>
<text text-anchor="middle" x="65.3583" y="-8.7" font-family="Helvetica Neue" font-size="14.00" fill="#000000">Dense</text>
<polyline fill="none" stroke="#000000" points="93.5855,-.5 93.5855,-25.3 "/>
<text text-anchor="middle" x="126.089" y="-8.7" font-family="Helvetica Neue" font-size="14.00" fill="#000000">softmax</text>
<polyline fill="none" stroke="#000000" points="158.5925,-.5 158.5925,-50.1 "/>
<text text-anchor="middle" x="187.9936" y="-33.5" font-family="Helvetica Neue" font-size="14.00" fill="#000000">input:</text>
<polyline fill="none" stroke="#000000" points="158.5925,-25.3 217.3947,-25.3 "/>
<text text-anchor="middle" x="187.9936" y="-8.7" font-family="Helvetica Neue" font-size="14.00" fill="#000000">output:</text>
<polyline fill="none" stroke="#000000" points="217.3947,-.5 217.3947,-50.1 "/>
<text text-anchor="middle" x="262.347" y="-33.5" font-family="Helvetica Neue" font-size="14.00" fill="#000000">(None, 256)</text>
<polyline fill="none" stroke="#000000" points="217.3947,-25.3 307.2993,-25.3 "/>
<text text-anchor="middle" x="261.9557" y="-8.7" font-family="Helvetica Neue" font-size="14.00" fill="#000000">(None, 10)</text>
</g>
<!-- 1599550294432&#45;&gt;1599550261232 -->
<g id="edge20" class="edge">
<title>1599550294432-&gt;1599550261232</title>
<path fill="none" stroke="#000000" d="M172.2152,-86.8517C172.2152,-78.5937 172.2152,-69.2517 172.2152,-60.3864"/>
<polygon fill="#000000" stroke="#000000" points="175.7153,-60.292 172.2152,-50.292 168.7153,-60.292 175.7153,-60.292"/>
</g>
</g>
</svg>